<?xml version="1.0" encoding="UTF-8"?>
<svg id="Layer_1" data-name="Layer 1" xmlns="http://www.w3.org/2000/svg" viewBox="0 0 1452.82 245.98" fill="current">
  <path d="m1035.3,120.63c11.33,13.72,11.03,28.91,4.3,44.08-7.64,17.24-21.27,28.75-38.7,35.61-8.72,3.43-17.07,1.51-24.88-3.11-18.11-10.72-30.94-39.97-26.01-60.44,3.77-15.67,13.78-25.4,30.24-28.56-4.65-6.43-10.44-10.02-18.56-9.1-13.09,1.48-24.41,7.5-35.56,13.89-4.18,2.4-8.13,5.2-12.14,7.89-8.28,5.56-14.96,11.9-17.52,22.46-2.53,10.43-8.13,20.01-17,26.45-6.76,4.91-14.53,8.54-22.14,12.12-2.26,1.06-5.62.49-8.28-.16-13.9-3.37-25.37-11.47-36.89-19.43-15.07-10.42-27.31-23.86-39.65-37.19-1.45-1.57-2.95-3.1-5.34-5.6.58,2.23.7,3.19,1.07,4.05,6.66,15.18,4.81,30.34-.44,45.33-11.24,32.13-34.16,52.98-64.96,65.77-10.43,4.33-19.75.74-27.55-6.54-12.88-12.02-17.98-27.78-19.72-44.71-2.39-23.25,2.81-45.04,14.12-65.38,7.77-13.97,22.4-21.86,36.35-19.66,3.07.48,6.22,1.47,8.92,2.97,5.33,2.96,10.56,2.92,16.39,1.71,6.22-1.29,12.68-1.45,19.67-2.17-1.08-.76-2.96-1.53-3.97-2.93-1.14-1.58-1.49-3.73-2.18-5.63,1.98-.37,4.17-1.46,5.91-.96,3.79,1.09,7.6,2.58,10.97,4.63,12.79,7.81,21.53,19.75,30.71,31.14,8.67,10.76,16.71,22.04,25.47,32.72,7.04,8.59,15.93,14.63,27.32,16.11,1.65.21,3.31.42,4.97.47,12.16.41,15.09-1.65,18.21-13.56,4.54-17.32.71-33.73-6.25-49.59-5.28-12.02-12.71-22.76-22.46-31.55-9.87-8.89-21.08-13.85-35.12-11.55-17.45,2.86-34.97,5-50.79,13.76-2.15,1.19-4.66,1.83-7.08,2.37-1.11.25-3.08,0-3.47-.69-.61-1.09-.82-3.28-.13-4.06,1.94-2.18,4.14-4.46,6.73-5.67,19.14-8.93,39.21-11.62,60.33-10.42,14.74.84,29.12-2.88,41.45-11.8,5.27-3.81,5.46-7.7,1.15-12.7-8.8-10.21-20.81-15.38-32.93-20.1-14.48-5.63-29.51-9.18-44.99-11.04-25.89-3.11-38.07,12.02-43.31,32.53-.45,1.77.18,3.91.64,5.81,1.77,7.44,3.92,14.81,5.45,22.3,1.27,6.2-.81,10.81-4.38,11.35-3.5.52-6.38-3.34-6.65-10.06-.27-6.48-.78-13.15.45-19.43,1.56-7.99-.75-14.62-5.01-20.64-8.98-12.7-21.34-21.44-35.49-27.48-7.56-3.23-15.52-1.53-23.08.63-21.45,6.12-40.53,16.81-57.64,31.03-2.36,1.97-4.48,4.59-5.83,7.35-3.25,6.65.39,11.73,7.73,11.18,4.65-.35,9.27-1.09,13.92-1.34,27.64-1.45,54.97.24,81.51,8.77,4.22,1.36,8.27,3.55,12.01,5.96,2.1,1.35,4.45,3.78,4.79,6.02.42,2.72-1.14,5.75-1.84,8.65-2.36-.67-5.25-.69-7-2.12-27.01-22.11-70.58-26.32-101.27-9.59-10.12,5.52-17.42,13.88-23.24,23.57-11.1,18.45-17.37,38.53-18.81,59.97-.39,5.88.26,12.03,1.59,17.78,1.87,8.08,8.17,10.89,15.75,7.35,4.01-1.87,7.77-4.53,11.22-7.34,14.91-12.18,25.71-27.75,36-43.79,15.7-24.47,38.25-38.9,66.73-44.07,2.61-.47,5.53.77,8.31,1.21-2.13,1.7-4.01,4.02-6.43,4.99-22.49,9.02-41.82,22.81-58.8,39.77-11.63,11.62-22.24,24.27-33.33,36.45-4.37,4.8-8.56,9.79-13.25,14.26-10.22,9.75-22.24,12.25-34.97,6.06-12.25-5.96-23.94-13.07-35.88-19.66-3.79-2.09-7.48-4.41-11.42-6.16-2.77-1.23-5.9-1.68-9.8-2.73.81,5.83,1.46,10.53,2.1,15.23.16,1.16.68,2.43.37,3.44-.69,2.23-1.81,4.34-2.76,6.49-1.8-1.43-4.42-2.48-5.27-4.34-3.46-7.55-6.62-15.32,1.75-22.12.64-.52.6-2.16.5-3.24-3.15-33.69,17.32-53.17,43.74-63.19,7.76-2.94,16.09-4.36,23.86-7.27,6.16-2.3,12.27-5.22,17.66-8.95,5.61-3.89,5.64-9.39-.09-13.13-5.88-3.84-12.52-7.09-19.27-8.92-18.73-5.09-37.63-5.81-55.71,2.69-20.35,9.57-30.22,26.79-33.44,48.33-.24,1.61,1,3.71,2.08,5.21,6.19,8.64,11.01,17.84,12.65,28.48.15.99.56,2.08.3,2.95-.59,1.92-1.53,3.74-2.33,5.6-1.7-.81-3.84-1.21-5.04-2.49-7.16-7.61-11.24-17.09-10.75-27.22.51-10.49-4.89-15.49-12.9-19.43-8.47-4.17-16.21-2.17-23.37,3.22-7.41,5.59-12.87,12.85-17.65,20.54,9.21,2.51,18.3,4.37,26.95,7.47,14.49,5.19,27.2,13.33,36.68,25.79,1.8,2.36,3.26,5.04,4.52,7.74,1.42,3.05,1.18,5.89-2.67,7.62,2.39,2.28,4.69,4.38,6.88,6.57,17.88,17.95,8.51,39.2-6.13,48.6-9.23,5.92-19.5,8.34-30.23,9.37-17.72,1.7-35.3.51-52.7-2.98-3.7-.74-5.94-.31-8.24,3.07-4.34,6.36-10.29,10.81-18.2,12.11-9.49,1.56-15.69-3.13-16.18-12.78-.22-4.43.43-8.9.65-12.87-21.51-9.17-42.83-18.08-64.01-27.34-28.67-12.53-57.1-25.63-87.2-34.59-40.15-11.96-80.44-14.97-121.04-2.45-31.05,9.57-58.12,26.25-83.07,46.7-1.56,1.28-3.24,2.42-4.87,3.63-.36-.36-.73-.72-1.09-1.08.63-.93,1.08-2.08,1.91-2.77,35.15-29.37,73.95-51.03,120.36-56.34,29.96-3.43,59.12.92,87.85,9.34,29.33,8.6,57.05,21.27,84.95,33.49,22.08,9.68,44.3,19.06,66.01,28.37,1.08-.88,1.49-1.04,1.56-1.29,6.61-24.54,24.33-38.7,46.18-48.59,18.49-8.37,37.82-11.76,57.92-6.61,4.15,1.06,8.02,3.21,12.12,4.54,2.15.7,4.53.7,6.8,1.02l1.35-1.83c-3.12-4.52-5.69-9.58-9.46-13.47-15.62-16.13-35.26-24.03-57.28-26.39-1.46-.16-3.82,1.67-4.67,3.19-5.03,9.01-9.74,18.21-14.57,27.33-.78,1.47-1.39,3.11-2.47,4.33-2.21,2.49-4.69,4.75-7.05,7.11-2.56-2.65-6-4.86-7.53-8.01-7.83-16.14,3.13-34.68,22.3-36.49,7.71-.73,12.16-3.55,16.15-9.71,3.2-4.95,7.52-9.37,12-13.27,11.36-9.89,23.65-9.72,35.25-.07,1.26,1.05,2.5,2.12,4.07,3.44,1.41-5.06,2.39-9.89,4.09-14.44,8.7-23.25,25.28-37.14,49.94-40.63,17.29-2.44,34.27-.75,50.42,6.31,3.31,1.45,6.52,3.42,9.29,5.73,6.44,5.37,6.69,12.32.02,17.32-4.97,3.73-10.77,6.66-16.6,8.87-7.6,2.89-15.69,4.44-23.41,7.06-16.93,5.74-31.2,15.08-39.54,31.56-5.04,9.96-6.01,20.63-4.84,29.96,8.17,3.83,15.47,6.86,22.4,10.58,11,5.9,21.58,12.58,32.65,18.32,10.84,5.63,21.92,6.88,32.39-1.33.57-.45,1.06-.98,1.24-2.03-1.87.93-3.7,1.97-5.63,2.76-9.07,3.7-17.42.22-19.39-9.31-1.56-7.53-1.95-15.58-1.27-23.25,1.85-20.69,8.59-39.91,19.28-57.78,12.64-21.12,32.21-30.7,55.72-33.25,27.05-2.92,52.07,2.23,73.38,20.39.61.52,1.38.86,2.27,1.4,3.3-4.13,1.68-7.71-1.8-9.75-5.4-3.16-11.11-6.29-17.1-7.88-28.66-7.57-57.81-9.21-87.24-5.8-4.86.56-9.57.61-12.43-4.11-2.84-4.68-1.77-9.5,1.33-13.56,2.39-3.13,5.32-5.99,8.45-8.4,17.87-13.7,37.17-24.62,59.35-29.78,10.52-2.45,20.38-1.38,29.73,4.55,13.33,8.44,26.01,17.41,32.64,33.13,1.89-4.27,3.33-8.15,5.26-11.78,7.11-13.37,18.16-21,33.48-20.28,27.41,1.28,53.13,8.8,76.57,23.3,3.9,2.41,7.41,5.69,10.51,9.11,5.58,6.15,4.78,12.01-1.83,17.04-7.48,5.69-16.23,8.29-25.25,10.22-1.78.38-3.56.76-6.34,1.35,22.27,8.11,34.4,25.17,43.41,44.66,9.07,19.62,12.24,39.98,2.27,61.59,17.37-7.65,24.07-22.01,29.27-38.42-2.27.68-3.91,1.34-5.62,1.65-5.95,1.08-10.9-2.4-12.38-8.88-2.07-9.1,1.02-17.1,5.82-24.58,5.23-8.16,12.48-14.2,20.64-19.29,1.74-1.08,3.69-2.57,4.46-4.34,10.12-23.37,29.19-29.88,51.61-28.3,11.49.81,22.25,4.11,31.52,11.3,10.87,8.43,14.98,19.97,15.44,33.31,2.32-8.58,3.95-17.29.49-25.79-1.35-3.31-4.68-5.79-6.97-8.75-1.14-1.47-1.96-3.17-2.93-4.77,1.62-.9,3.31-2.66,4.87-2.56,20.3,1.36,39.48,5.97,55.16,20.07.99.89,1.91,1.87,2.72,2.92,5.37,6.87,5.28,10.22.38,15.49,13.65,1.23,28.14,1.62,42.29,3.99,27.19,4.55,52.1,15.96,76.71,27.89,28.76,13.93,57.28,28.38,86.3,41.76,21.99,10.14,45.12,17.14,69.38,19.67,42.19,4.4,78.74-9.02,111.21-35.3,1.33-1.08,2.75-2.06,4.12-3.09.39.35.77.71,1.15,1.06-.71,1-1.24,2.23-2.16,2.98-34.31,28.36-73,42.5-118.01,36.71-31.17-4.01-59.87-15.38-87.89-28.77-30.33-14.5-60.25-29.89-90.78-43.98-27.64-12.76-56.7-20.33-87.54-19.25-15.59.55-30.84,2.79-45.43,8.58-1.48.59-2.92,1.3-4.37,1.95.04.55.09,1.1.13,1.64,2.92,0,5.88.33,8.75-.05,27.67-3.65,53.85.14,77.63,15.59,13.12,8.52,23.52,19.56,29.98,34.01.41.91.83,1.83,1.13,2.78,3.25,10.19,5.06,20.58-3.01,29.24-8.29,8.9-19.2,10.03-30.53,7.44-10.24-2.35-18.22-8.58-23.94-16.99-7.58-11.12-14.07-22.97-21.26-34.36-4.87-7.72-10.05-15.25-15.29-22.72-1.08-1.54-3.04-2.46-4.6-3.66-5.61-2.54-11.18-7.07-16.84-7.18-9.75-.2-19.54,3.16-30.05-.49,6.13,8.08,12.15,9.3,20.04,5.7,3.79-1.73,8.32-3.28,12.27-2.81,4.88.57,9.5,3.33,14.23,5.14Zm-265.73,28.56c.51-14.73-3.47-23.59-7.36-32.42-.97-2.2-2.69-4.17-4.41-5.91-6.75-6.84-14.84-8.46-23.89-5.59-7.32,2.32-14.35,2.31-21.15-1.87-1.79-1.1-4-1.66-6.09-2.1-12.69-2.69-26.68,4.36-34.37,18.04-12.65,22.53-17.6,46.62-12.71,72.26,2.51,13.16,7.57,25.23,17.65,34.56,8.26,7.64,17.72,10.03,27.97,4.48,8.9-4.82,18.08-9.49,26.02-15.66,22.93-17.79,36.37-41.15,38.33-65.78Zm182.47-2.86c.08,18.04,9.66,37.41,23.34,47.07,9.02,6.37,18.55,7.75,28.68,2.75,12.36-6.1,22.61-14.65,29.86-26.45,7.44-12.12,9.64-25.04,4.68-38.7-4.01-11.05-17.22-16.21-27.5-10.88-9.6,4.98-16.46,4.23-23.55-4.11-4.51-5.31-9.13-5.06-14.57-3.01-12.77,4.82-21.01,17.99-20.94,33.34Zm77-34.35c14.11,6.99,21.71,19.41,28.6,32.48,2.79,5.3,5.37,10.77,8.73,15.69,6.06,8.9,12.11,17.91,19.16,26.01,6.37,7.32,15.32,10.48,25.13,10.19,17.69-.52,27.16-12.69,22.11-29.58-2.14-7.16-5.66-14.44-10.35-20.22-24.1-29.76-56.33-38.76-93.39-34.56Zm-629.03,115.24c20.4,4.22,40.25,5.53,60.25,2.95,10.54-1.36,20.71-4.3,28.63-11.79,18.57-17.57,10.33-36.9-8.07-48.69-.88-.56-2.31-.64-3.4-.45-9.28,1.62-18.96,2.17-27.73,5.28-25.15,8.9-37.69,30.27-49.68,52.7Zm72.74-61.92c-3.12-.92-6.18-2.23-9.37-2.69-35.96-5.25-65.59,6.61-88.7,34.23-4.69,5.6-6.86,13.3-10.61,20.87,11.17,3.07,20.74,5.82,30.4,8.2,1.1.27,3.21-1.18,3.99-2.39,3.7-5.73,7.02-11.7,10.62-17.49,14.64-23.57,35.28-37.61,63.66-40.72Zm439.91-85c2.29-.83,3.51-1.24,4.71-1.7,20.48-7.77,39.48-5.88,56.55,8.66,2.66,2.27,5.35,4.49,8.07,6.69,4.78,3.87,9.42,7.96,14.44,11.49,4.73,3.32,7.13,2.35,7.8-3.2,1.77-14.8-1.59-27.95-14.19-37.21-12.73-9.36-27.35-11.66-42.71-10-15.79,1.7-27.22,9.71-34.67,25.27Zm93.97,25.03c-3.24,5.68-5.63,6.34-11.84,2.46-2.39-1.49-4.62-3.26-6.81-5.05-5.53-4.54-11-9.15-16.48-13.75-18-15.1-37.5-15.06-57.86-5.65-1.36.63-3.07,1.92-3.37,3.2-3.09,13-5.93,26.07-8.87,39.24,1.2.1,1.43.19,1.52.12,1.17-.93,2.28-1.93,3.47-2.84,15.2-11.54,31.21-21.51,50.08-25.99,10.18-2.42,18.74-.01,25.43,8.31,1.13,1.4,2.37,3.3,3.89,3.71,8.91,2.38,17.93,4.34,27.11,1.08-2.2-1.7-4.27-3.3-6.28-4.85Zm-4.55-48.16l-.76,1.52c8.55,4.19,11.35,11.69,11.66,20.21.17,4.78-.61,9.61-1.16,14.4-.41,3.52-1.14,7-1.73,10.49,3.44-6.56,9.6-8.2,15.61-9.1,10.03-1.5,20.19-2.12,30.28-3.21,6.38-.68,8.47-4.45,4.62-9.52-3.16-4.16-7.12-7.97-11.41-10.95-10.31-7.18-22.37-10.1-34.47-12.56-4.13-.84-8.43-.88-12.65-1.29Zm-95.75,30c-12.12,7.67-21.8,16.61-24.95,30.69-.77,3.42-.48,7.27.18,10.76.7,3.7,3.36,6.4,7.45,5.99,4.2-.42,8.38-1.68,9.39-6.67,2.68-13.33,5.21-26.69,7.93-40.77Zm-492.29,36.98c-14.74-.42-25,5.68-28.57,16.51-2.91,8.83-.3,18.3,7.22,23.35,7.05-13.17,14.06-26.25,21.35-39.86Zm396.5,33.6c.44-.39.88-.77,1.32-1.16-11.43-14.25-22.54-28.77-34.43-42.62-5.23-6.09-11.79-11.15-18.22-16.05-3.06-2.33-7.23-3.21-10.89-4.75-.24.44-.47.87-.71,1.31,20.95,21.12,39.22,44.91,62.94,63.27Zm-415.89,71.42c-10.2-2.91-19.98-5.7-31.05-8.85,0,5.23-.45,9.86.11,14.37.77,6.2,5.22,9.33,11.29,8.5,8.87-1.2,14.92-6.39,19.65-14.02Zm236.41-92.72c20.55-20.32,42.62-38.43,69.74-49.47-31.08,5.42-54.52,21.66-69.74,49.47Zm-154.13-24.93c-.66,11.97,2.6,22.45,11.68,30.74.09-11.75-4.62-21.69-11.68-30.74Zm268.9-28.48c16.47-6.61,32.91-13.04,50.76-14.82-18.22.63-35.71,3.73-50.76,14.82Zm-13.09-4.13c4.61-9.34-.71-17.42-2.71-25.93-.11,8.76-2.68,17.79,2.71,25.93Zm-231.85,80.88c-4.95,6.37-4.03,14.23,2.6,20.2-.82-6.34-1.63-12.68-2.6-20.2Zm513.82-55.54c9.58-2.87,19.16-5.74,28.73-8.61-10.12,1.03-20.86-.15-28.73,8.61Z"/>
</svg>