<?xml version="1.0" encoding="UTF-8"?>
<svg id="Layer_2" data-name="Layer 2" xmlns="http://www.w3.org/2000/svg" viewBox="0 0 121.98 173.44">
  <defs>
    <style>
      .cls-1 {
        fill: #fff;
      }
    </style>
  </defs>
  <g id="Layer_1-2" data-name="Layer 1">
    <path class="cls-1" d="m66.59,104.23c-.8-.03-1.6-.07-2.4-.1-.79-.24-1.6-.44-2.37-.74-.69-.27-1.15-.11-1.47.52,0,0,0,0,0,0-.8,1.2-1.59,2.4-2.39,3.6-.35.58-.62,1.23-1.05,1.74-1.35,1.59-1.68,3.5-1.82,5.46-.48,6.27-1.33,12.49-2.31,18.7-.56,3.57-1.17,7.14-1.64,10.73-.41,3.14-1.28,6.23-1.92,9.34-.48,2.34-.91,4.69-1.37,7.03-.88,2-.96,4.22-1.66,6.27-.08.24-.15.48-.23.72-.48,1.33-.91,2.69-1.21,4.08-.28.26-.23.61-.26.94-.33.24-.05,1-.74.9-.51-.07-.69-.5-.79-.94-.61-2.59-1.33-5.17-1.34-7.86.07-.69-.14-1.31-.44-1.92.48-1.98.06-3.97.02-5.95-.09-4.27.39-8.52.71-12.77,0-.15.02-.3.03-.45.46-2.25.91-4.5,1.37-6.74.49-2.56,1.28-5.04,2.12-7.51.13-.37.23-.75.34-1.12.42-.49.55-1.09.69-1.69.5-.9.7-1.9.95-2.89.9-.65,1.05-1.71,1.44-2.63.09-.24.18-.48.27-.71.7-1.05,1.22-2.19,1.69-3.35.4-.72.79-1.44,1.19-2.16.75-.94,1.3-1.98,1.68-3.12,0,0,0,0,0,0,.74-.51.37-1.27.45-1.93,0-.48.01-.96.02-1.44.06-.11.16-.21.16-.32.1-2.87.22-5.74.28-8.62.02-.77-.39-1.36-1.15-1.65,0,0,0,0,0,0-.08-.45-.36-.73-.73-.95-.07-.08-.14-.16-.21-.25-.48-.8-.97-1.6-1.45-2.4,0-.39-.32-.63-.49-.93.13-.09.13-.19,0-.29,0-.07,0-.14,0-.21-.29-1.37-.26-2.72.18-4.07.19-.56.57-1.05.54-1.67h0c.87-.52,1.24-1.53,2-2.13,1.22-.97,1.09-2.17,1-3.52-.12-1.74-.48-3.44-.65-5.16,0-.24-.01-.48-.02-.72,0-.65.19-1.31-.15-1.94-.17-2.05-.57-4.07-.82-6.1-.46-3.72-1.24-7.35-2.33-10.92-.28-1.33-.69-2.61-1.67-3.62h0c-.1-1.4-1.06-2.29-1.81-3.46-.28.82.11,1.41.12,2.04,0,1.44-.01,2.87-.02,4.31-.46,2.45-.93,4.89-1.94,7.19-1.25,2.85-2.62,5.6-5.08,7.65-1.2,1-2.59,1.69-3.79,2.67-.83.46-1.75.16-2.61.3-1.64-.06-2.39-1.18-3.01-2.49-.5-1.05-.49-2.23-.83-3.32,0-1.04,0-2.08,0-3.12.33-2.32.65-4.63,1.3-6.89.08-.27.23-.55.03-.79-.2-.25-.45-.07-.64.04-2.72,1.44-5.67,2.25-8.61,3.07-.16.01-.32.02-.47.03-2.47.27-4.94.75-7.44.25-.08,0-.16,0-.24,0-2.72-.59-5.28-1.51-7.4-3.39-.64-1.29-1.05-2.6-.5-4.04,2.4-3.39,6.08-4.75,9.75-6.17-1.7-.03-3.32-.41-4.97-.57-.27-.28-.62-.22-.96-.24-.18-.08-.35-.18-.54-.24-3.19-1.02-6.01-2.56-7.79-5.55-1.02-1.71-1.6-3.62-.73-5.47.9-1.9,2.88-1.7,4.64-1.7.16,0,.32,0,.48,0,2.24-.1,4.38.6,6.85.94-2.7-3.19-4.77-6.46-5.77-10.31-.13-1.67-.34-3.34-.03-5.02.61-1.75,1.59-3.23,3.13-4.31.32-.04.58-.19.75-.46,1.56-.4,3.14-.63,4.75-.52.23.01.47.03.7.04.17.06.33.13.5.19.16.01.31.03.47.04,2,.74,4,1.46,5.84,2.6.88.54,1.63,1.27,2.57,1.7.03.01.05.02.08.04-.02-.01-.05-.03-.07-.04-.04-.32-.04-.64-.12-.94-.6-2.13-.75-4.27-.68-6.49.05-1.52.8-2.83.84-4.31.16-.23.33-.47.49-.7.89-.79,1.4-1.91,2.34-2.67C29.88,1.26,31.78.34,33.95,0c.72,0,1.44,0,2.16,0,8.18,1.31,11.78,6.71,12.7,14.5.48-.36.55-.77.72-1.12,1.12-2.31,2.52-4.46,4.35-6.23,1.92-1.85,4.13-3.36,6.7-4.25,1.33-.24,2.67-.3,4.02-.24.1.07.19.14.28.21.15.02.31.03.46.05.51.37,1.04.68,1.7.7,0,0,0,0,0,0,.15.29.38.47.72.49,0,0,0,0,0,0,1.39,1.88,2.42,3.93,2.85,6.25.18,3.13-.78,5.98-2.24,8.69-.13.23-.46.42-.22.72.22.28.52.08.77,0,1.19-.36,2.38-.71,3.62-.76,2.64-.11,4.08,1.64,3.49,4.25-.83,3.67-3.03,6.47-5.81,8.85-2.85,2.44-6.09,4.18-9.71,5.21-.17.05-.31.24-.46.36-1.44.37-2.93.56-4.29,1.21-1.07,0-2,.4-2.89.94-.69.23-1.33.54-1.92.97-.16.08-.32.16-.48.24-.26.03-.53.02-.73.24-.26.02-.52.02-.72.24-1.49.28-2.97.56-4.46.84-.67.13-.8.4-.49,1.07,1.01,2.16,2.46,3.97,4.22,5.55.2.64.57,1.17.97,1.68,2.25,3.77,3.08,8.01,4.05,12.2.51,2.22.77,4.5,1.19,7.05.51-1.41,1.19-2.38,1.92-3.31,1.7-2.18,3.66-4.02,6.4-4.81,1.4-.4,1.4-.37.84-1.79-.95-2.41-1.35-4.88-.65-7.43.56-2.02,1.77-3.43,3.83-4.07,2.11-.65,4.18-.5,6.2.26,2.91,1.1,5.2,3.05,7.17,5.41.49.59.74.63,1.03-.14.5-1.36,1.26-2.58,2.17-3.7,2.69-3.3,6.18-5.22,10.43-4.85,4.69.41,7.87,3.2,9.68,7.54.98,2.35,1.43,4.81,1.41,7.35,0,.84.19,1.05,1.1.93,2.96-.37,5.87-.31,8.59,1.25.77.44,1.1,1.4,2.05,1.57h0c.25.81.56,1.57,1.2,2.15,0,0,0,0,0,0,.02.33-.02.68.24.95.01.16.03.32.04.48.69,1.67.39,3.36.07,5.05-.5,2.63-2.02,4.72-3.65,6.74-.3.38-.79.78.02,1.06,2.69.92,4.8,2.59,6.41,4.91.02.16.03.32.05.48.73,1.6.93,3.29.88,5.02-.25.29-.19.64-.2.97-.28.79-.47,1.62-.85,2.36-2.57,5.04-6.92,7.36-12.35,7.99-.16,0-.32.01-.49.02-1.93-.08-1.91-.08-2.44,1.7-.08.29-.32.53-.51.78-.37.51-.76,1.01-1.13,1.52-.52.05-1.01.18-1.43.52-.37.16-.77.28-.98.68-.3,0-.61,0-.91-.01-.71-.34-1.45-.15-2.18-.14-.4,0-.8-.02-1.21-.03-1.5-.05-2.85-.77-4.31-1-.72-.33-1.43-.65-2.15-.98-1.08-.81-2.17-1.6-3.23-2.44-2.99-2.38-4.33-5.76-5.37-9.25-.43-1.42-.37-2.99-.52-4.5-.04-.37-.02-.75-.51-.8-.4-.04-.82-.07-1.08.33-.15.23-.26.5-.34.76-.58,2-1.31,3.94-2.18,5.82-1.45,3.12-2.9,6.25-5.99,8.17-.31.09-.63.18-.94.27-1.32.49-2.7.46-4.07.54ZM28.66,4.08h0c-.62.4-1.04.95-1.23,1.67-.07.15-.14.31-.22.46-.85.88-1.05,2-1.18,3.15-.31,1.7-.38,3.41,0,5.11.6,2.74,1.29,5.39,3.62,7.35,1.42,1.2,2.59,2.7,3.81,4.12,2.55,2.98,4.61,6.28,6.45,9.73.31.58.67.69,1.08.13,1.79-2.45,3.48-4.96,4.29-7.95.76-1.35.98-2.87,1.38-4.33.02-.24.03-.47.05-.71.97-3.26.9-6.59.53-9.91-.24-2.13-.82-4.21-2.22-5.94,0-.08-.02-.16-.03-.24-1.02-1.46-2.18-2.78-3.81-3.6l-1.43-.73c-2.88-1.4-5.77-1.68-8.65,0-.7.2-1.35.47-1.68,1.19-.33.04-.58.19-.72.49Zm31.94,19.96c.44-.07.72-.36.97-.7.24-.13.49-.26.72-.4,2.43-1.46,4.68-3.09,5.76-5.88.58-.69.83-1.54,1.02-2.38.55-2.46.82-4.92-.54-7.25-.08-.16-.15-.32-.23-.48-.52-1.39-1.55-2.28-2.89-2.81-2.99-1.17-5.58-.24-7.97,1.59-.59.16-1.1.43-1.42.98-1.22.96-2.34,2.02-3.15,3.36l-.47.7c-1.35,1.35-1.99,3.12-2.78,4.78-.43.91-.92,1.86-.8,2.94-.24.39-.19.84-.24,1.27-.16,1.21-.34,2.41-.57,3.6-.61,3.26-1.89,6.29-3.27,9.28-.98,1.47-1.96,2.93-3.03,4.53,2.16-.29,3.85-1.07,4.97-2.84.89-.72,1.75-1.48,2.67-2.16,2.87-2.16,5.76-4.3,8.64-6.44.35-.08.67-.22.92-.49l1.69-1.19Zm30.68,53.94c-.37.15-.74.29-1.1.45-1.53.69-3.01,1.36-4.81.76-.84-.28-.62.87-.91,1.34-.27.44.1.76.57.79.92.04,1.84.05,2.75.05.47,0,1.06.2,1.36-.24.73-1.03,1.78-1.84,2.17-3.11.02-.02.05-.04.07-.06l-.05-.05s-.04.05-.07.07ZM29.63,23.77l-.06-.07.07.06c.05.23.05.49.16.69,1.64,2.83,3.4,5.6,5.48,8.14.65.8,1.36,1.6,2.52,2.32-.49-1.39-1.22-2.28-1.82-3.24-1.8-2.88-3.91-5.53-6.34-7.9Zm64.11,54.02c.33,0,.61-.14.89-.32,4.76-3.05,7.71-7.32,8.69-12.91.06-.33.39-.75.05-1.01-.35-.27-.75.07-1.11.21-4.21,1.58-7.36,4.57-10.33,7.79-1.47,1.59-2.61,3.43-3.64,5.33-.12.23-.4.48-.14.75.19.21.46.05.67-.04.55-.24,1.1-.47,1.62-.77.93-.54,1.84-1.13,2.77-1.68.47-.28.98-.43,1.42.07.43.49,0,.89-.18,1.31-.19.44-.68.69-.76,1.2-.14.05-.31.08-.3.29,0,.03.05.08.08.08.21.01.24-.15.29-.3ZM7.8,21.08c.24,1,.19,2.25.58,3.44.99,3.02,2.69,5.61,4.72,8,.87,1.03,1.82,1.91,3.28,2.24,7.15,1.66,14.48,2.28,21.66,3.75.21.04.41.04.54-.13.18-.24.06-.45-.12-.64-.25-.26-.49-.53-.76-.77-4.58-4.2-7.85-9.32-10.56-14.84-.28-.57-.4-1.2-.89-1.68-2.89-2.76-6.22-4.77-10.11-5.7-4.87-1.16-8.33,1.44-8.34,6.32Zm95.76,38.73c-.02-2.26-.43-4.45-1.36-6.51-1.71-3.8-4.47-6.36-8.83-6.48-5.69-.16-9.6,4.06-11.46,8.81-.14.35-.12.65.08,1.01.66,1.23,1.32,2.47,1.87,3.75,2.28,5.28,3.91,10.65,2.03,16.45-.09.26-.22.62.07.76.41.19.51-.26.66-.52.95-1.7,1.84-3.44,3.09-4.96,3.33-4.05,7.07-7.61,12.03-9.6,1.93-.77,1.83-.28,1.82-2.7Zm-17.47,26.56c.18.8.65.81,1.01.87,2.45.47,4.77,1.29,7.05,2.29,4.97,2.18,8.81,5.55,11.06,10.57.31.68.66.96,1.42.95,4.23-.08,8.07-1.19,11.05-4.35,4.12-4.36,4.31-11.01-1.93-14.25-1.72-.89-3.36-1.61-4.79.43-.04.06-.13.09-.2.14-3.42,2.51-7.27,3.93-11.44,4.6-3.5.56-6.97.85-10.42-.3-.89-.29-1.77-.6-2.81-.95Zm-.8-12.37c.32-7.2-1.97-13.39-6.03-18.87-2.07-2.8-4.84-4.97-8.49-5.64-3.6-.65-6.32,1.15-6.58,4.45-.19,2.35.13,4.61,1.25,6.73.28.53.59.79,1.14.88,3.68.61,6.17,2.88,8.29,5.79,1.71,2.35,2.9,4.96,4.18,7.52.72,1.44,1.38,2.91,2.17,4.6.6-2.01,1.1-3.75,1.64-5.49.2-.66.5-1.35,1.29-1.41.8-.06.7.81,1.14,1.43ZM15.53,59.1c6.07-.04,10.71-1.63,15.21-3.82.7-.34,1.1-.81,1.36-1.55.7-1.96,1.56-3.86,2.85-5.51,1.58-2.01,3.33-3.8,6.17-3.82.38,0,.96.19.84-.61-.1-.63-.37-.89-1.04-.79-7.25,1.12-14.5,2.24-21.61,4.07-4.05,1.04-8.13,2.12-11.34,5.11-1.57,1.46-1.58,3.34.19,4.52,2.53,1.68,5.34,2.47,7.39,2.39Zm101.7,11.35c-.01-1.75-.36-3.26-1.24-4.59-2.02-3.03-5.07-3.71-8.41-3.37-2.49.26-2.48.37-3.04,2.79-.08.35-.16.7-.25,1.05-1.62,6.27-5.35,10.76-11.25,13.45-.5.23-1.06.35-1.55.6-.28.14-.54.43-.45.78.1.36.47.2.72.22,1.4.08,2.78-.15,4.16-.38,5.23-.87,10.46-1.77,15.8-1.12.34.04.64-.02.88-.27,2.51-2.62,4.47-5.52,4.63-9.15Zm-63.66,44.58c-4.72,8.41-8.31,17.18-9.97,26.7-1.41,8.1-1.3,25.09.27,28.49,4.82-18.19,7.85-36.58,9.71-55.19Zm24.66-34.37c.21.01.33.03.44.03.33,0,.75.38.95-.07.15-.32-.28-.52-.48-.76-1.83-2.22-3.86-4.24-5.83-6.34-2.7-2.87-5.39-5.76-7.45-9.16-1.05-1.73-1.46-1.82-3.37-1.1-.15.06-.29.13-.44.2-3.8,1.73-7.74,6.95-6.98,12.33.25,1.77.31,3.56,1.46,5.09.47.62.84.75,1.45.33,1.2-.82,2.54-1.34,3.9-1.8,4.85-1.61,9.63-1.61,14.28.68.69.34,1.33.73,2.05.57Zm-32.75-27.39c0-.72.08-1.45-.02-2.16-.19-1.37-.25-2.8-1.14-3.97-.41-.54-.79-.67-1.06.15-.52,1.59-1.67,2.7-2.96,3.67-1.95,1.46-3.96,2.84-6.1,4.01-.66.36-1.36.7-1.6,1.52-1.12,3.82-1.85,7.69-1.51,11.69.08.99.36,1.94.88,2.83.63,1.07,1.52,1.36,2.64,1.06,3.17-.86,5.32-3.09,7.02-5.68,2.59-3.95,3.98-8.34,3.85-13.13Zm29.27-30.63c-.02-1.71-.56-2.3-2.06-2.21-2.4.14-4.57,1.05-6.67,2.13-3.66,1.88-7.05,4.21-10.37,6.62-2.54,1.85-5.1,3.7-7.44,5.81-.24.22-.55.43-.35.78.18.32.5.09.76.06,1.54-.21,3.08-.4,4.65-.31.85.05,1.63.25,1.79,1.23.1.61.35.69.9.54,1.8-.48,3.62-.83,5.36-1.54,4.41-1.8,8.3-4.28,11.15-8.16,1.13-1.54,2.11-3.2,2.29-4.96Zm-42.5,19.34c-1.45-.23-2.89-.5-4.35-.69-4.34-.57-8.46-1.76-11.96-4.48-1.23-.95-2.51-1.47-3.97-1.68-2.86-.41-5.68-1.31-8.63-.82-1.76.29-2.28.94-1.95,2.7.4,2.11,1.58,3.73,3.27,4.99,3.9,2.91,8.44,3.43,13.08,3.3,2.29-.07,4.59-.37,6.87-.85,2.61-.54,5.22-1.04,7.64-2.46Zm23.52,49.11h.03c0,2.04,0,4.08,0,6.11,0,.49.03.95.48,1.28,1.03.76,2.05,1.52,3.07,2.29.77.58,1.4.59,1.96-.32.37-.61.86-1.14,1.3-1.72,4.11-5.41,9.15-9.54,15.85-11.33.42-.11.72-.25.84-.72.32-1.22.68-2.44,1.01-3.66.08-.29.32-.69-.1-.84-.56-.21-1.19-.18-1.77-.03-.44.12-.17.52-.17.81-.02,1.02-.02,1.96-.98,2.75-1.53,1.26-3.26,1.73-5.16,1.94-5.25.6-10.2.03-14.4-3.57-.39-.33-.74-.78-1.35-.46-.6.32-.61.87-.61,1.45,0,2,0,4,0,5.99Zm43.19,14.98c.36,0,.73.05,1.08,0,1.76-.31,3.47-.72,4.26-2.61.38-.9.06-1.27-.89-1.46-4.14-.81-7.87-2.47-11.11-5.27-1.26-1.09-2.16-2.85-4.25-2.78-.3.01-.63-.45-.91-.73-1.16-1.18-1.88-2.67-2.72-4.07-.22-.36-.34-.93-.92-.74-.56.18-.34.74-.35,1.15-.07,1.62.36,3.16.74,4.71,1.85,7.63,8.95,11.77,15.08,11.82Zm-20.36-17.24c-.65.16-1.08.22-1.48.37-6.39,2.28-10.98,6.76-14.82,12.16-.34.47-.11.62.27.92.84.66,1.84.47,2.76.59,3.27.42,6.28-.18,8.3-3.06,2.28-3.26,3.76-6.92,4.98-10.98Zm-4.61-7.92c0-.12.02-.25.03-.37-.76-.2-1.52-.46-2.29-.59-4.45-.75-8.65.03-12.64,2.1-.69.36-.83.69-.29,1.25,1.07,1.12,2.44,1.81,3.84,2.32,1.48.54,3.07.85,4.67.96,2.77.19,5.51.04,8.09-1.11.47-.21,1.1-.56,1.03-1.05-.08-.5-.79-.53-1.29-.65-1.28-.29-2.61-.39-3.77-1.11-.4-.25-.73-.56-.6-1.06.12-.48.53-.68,1.01-.69.74-.01,1.49,0,2.23,0Zm29.32,19.78c.67.16.68-.16.44-.64-.2-.39-.38-.79-.62-1.16-2.53-3.97-6.05-6.76-10.36-8.57-1.36-.57-2.74-1.12-4.2-1.42-.23-.05-.49-.16-.68.03-.23.22-.05.46.07.64.77,1.2,1.31,2.54,2.43,3.53,1.16,1.03,2.22,2.19,3.44,3.16,2.81,2.22,5.98,3.65,9.47,4.42Zm-13.51-17.72c.8.9,1.84,1.11,2.91,1.28,1.42.22,2.83.44,4.25.64.5.07,1.16.31,1.11.73-.14,1.23.67.8,1.15.72,1.72-.32,3.43-.74,5.08-1.34,2.37-.85,4.55-2.03,6.56-3.69-.73-.37-1.39-.42-2.06-.41-4,.05-7.94.6-11.87,1.29-2.35.41-4.71.68-7.13.78Zm-23.27-20.03c3.12,5.45,7.64,9.32,11.68,13.62-1.35-3.46-3.01-6.72-5.33-9.59-1.58-1.94-3.45-3.53-6.34-4.03Zm-29.46-23.55c-6.42-.64-12.6-1.53-18.73-2.76,1.4.9,2.79,1.75,4.36,2.22,3.57,1.07,7.28,1.39,10.94,1.94,1.22.18,2.41.07,3.44-1.4Zm4.08,6.26c-1.04.13-1.95.44-2.73,1-2.18,1.56-3.47,3.79-4.56,6.16-.08.18-.19.4,0,.55.28.22.54-.02.76-.16,2.22-1.4,4.51-2.7,6.35-4.62.48-.5.87-1.04,1.07-1.7.25-.83-.15-1.19-.89-1.22Zm13.45,51.09c-.12-3.87.22-7.45-.32-11.1-3.51,3.39-3.45,7.21.32,11.1Zm1,11.87c1.33-1.96,2.52-3.71,3.72-5.46.22-.31.45-.62.01-.91-1.11-.75-2.23-1.49-3.55-2.38.16,3.01-.38,5.76-.18,8.75Zm-11.22-70.57c.26.38.47.34.66.35,2.11.15,4.2-.19,6.31-.28.62-.03,1.25-.2,1.85-.4.27-.09.6-.36.51-.72-.08-.35-.45-.24-.72-.26-1.08-.1-2.15.06-3.2.25-1.78.32-3.61.43-5.41,1.05Zm45.56,46.67c-.81-.19-1.25-.71-1.5-1.43-.1-.3-.29-.42-.6-.49-1.17-.28-2.36-.22-3.55-.23-.35,0-.73.14-.55.54.28.63.55,1.37,1.46,1.35.68-.02,1.34.19,2,.2.89.02,1.76.45,2.73.05Zm-40.49-44.98c-2.28-.25-4.55.12-6.8-.33-.25-.05-.58-.1-.66.3-.12.64.76,1.69,1.41,1.55,2.04-.43,4.12-.67,6.05-1.52Zm34.12,36.35c-.46,1.59-.85,2.97-1.25,4.35-.07.23-.14.48.17.6.22.08.45-.03.5-.22.35-1.48,1.58-2.83.58-4.73Zm-1.61,8.55c-.03-.22.09-.59-.25-.68-.39-.1-.4.29-.47.54-.18.65-.34,1.31-.53,1.95-.1.34,0,.55.35.61.31.06.57-.04.62-.39.1-.66.18-1.33.28-2.04Zm7.94,1.5c1.63.85,6.31,1.02,7.34.33-2.37.57-4.69-.08-7.34-.33Zm-15.76-4.02c0,.07,0,.14,0,.22.62.23,1.23.5,1.87.68.26.07.73.5.84-.12.07-.41-.24-.75-.72-.77-.66-.02-1.32,0-1.99,0Zm-34.47-41.15c-.71-.79-1.2-.69-1.65,0h1.65Z"/>
  </g>
</svg>